<svg xmlns="http://www.w3.org/2000/svg" width="15" height="20" viewBox="0 0 15 20" fill="none">
  <path d="M 14.579 6.133 L 8.58 0.418 C 8.441 0.285 8.274 0.18 8.091 0.108 C 7.724 -0.036 7.312 -0.036 6.946 0.108 C 6.763 0.18 6.596 0.285 6.457 0.418 L 0.458 6.133 C 0.315 6.264 0.2 6.422 0.122 6.596 C 0.043 6.771 0.002 6.958 0 7.148 C -0.002 7.338 0.036 7.526 0.112 7.701 C 0.187 7.877 0.298 8.036 0.439 8.17 C 0.58 8.305 0.748 8.411 0.932 8.482 C 1.116 8.554 1.314 8.59 1.513 8.589 C 1.712 8.587 1.909 8.548 2.092 8.473 C 2.275 8.398 2.44 8.289 2.578 8.153 L 6.02 4.877 L 6.02 18.571 C 6.02 18.95 6.178 19.314 6.459 19.582 C 6.741 19.849 7.122 20 7.52 20 C 7.918 20 8.299 19.849 8.58 19.582 C 8.862 19.314 9.02 18.95 9.02 18.571 L 9.02 4.877 L 12.458 8.153 C 12.741 8.413 13.12 8.557 13.513 8.554 C 13.907 8.55 14.283 8.4 14.561 8.135 C 14.839 7.87 14.997 7.512 15 7.138 C 15.003 6.763 14.852 6.402 14.579 6.133 L 14.579 6.133 Z" fill="currentColor" fill-rule="nonzero"/>
</svg>
