<svg xmlns="http://www.w3.org/2000/svg" width="20" height="15" viewBox="0 0 20 15" fill="none">
  <path d="M 19.891 8.072 C 19.999 7.799 20.028 7.498 19.973 7.208 C 19.917 6.917 19.781 6.651 19.581 6.441 L 13.867 0.457 C 13.735 0.314 13.577 0.2 13.403 0.121 C 13.229 0.043 13.041 0.002 12.851 0 C 12.662 -0.002 12.474 0.036 12.298 0.111 C 12.122 0.187 11.963 0.298 11.829 0.438 C 11.695 0.579 11.589 0.746 11.517 0.93 C 11.445 1.113 11.409 1.311 11.41 1.509 C 11.412 1.708 11.451 1.904 11.526 2.087 C 11.601 2.269 11.71 2.434 11.846 2.572 L 15.124 6.005 L 1.429 6.005 C 1.05 6.005 0.686 6.162 0.418 6.443 C 0.151 6.723 0 7.104 0 7.501 C 0 7.898 0.151 8.278 0.418 8.559 C 0.686 8.839 1.05 8.997 1.429 8.997 L 15.124 8.997 L 11.848 12.428 C 11.711 12.566 11.603 12.731 11.528 12.913 C 11.453 13.096 11.413 13.292 11.412 13.491 C 11.41 13.689 11.446 13.887 11.518 14.07 C 11.59 14.254 11.696 14.421 11.83 14.562 C 11.964 14.702 12.124 14.813 12.299 14.889 C 12.475 14.964 12.663 15.002 12.853 15 C 13.043 14.998 13.23 14.957 13.404 14.879 C 13.579 14.8 13.736 14.686 13.868 14.543 L 19.583 8.559 C 19.715 8.419 19.82 8.254 19.891 8.072 L 19.891 8.072 Z" fill="currentColor" fill-rule="nonzero"/>
</svg>
