<svg xmlns="http://www.w3.org/2000/svg" width="20" height="15" viewBox="0 0 20 15" fill="none">
  <path d="M 18.572 6.017 L 4.878 6.017 L 8.154 2.578 C 8.29 2.44 8.399 2.275 8.474 2.092 C 8.549 1.909 8.588 1.712 8.59 1.513 C 8.591 1.314 8.555 1.116 8.483 0.932 C 8.411 0.748 8.305 0.58 8.171 0.439 C 8.037 0.298 7.878 0.187 7.702 0.112 C 7.526 0.036 7.338 -0.002 7.149 0 C 6.959 0.002 6.772 0.043 6.597 0.122 C 6.423 0.2 6.265 0.315 6.134 0.458 L 0.42 6.457 C 0.287 6.596 0.181 6.761 0.109 6.944 C 0.037 7.126 0 7.321 0 7.518 C 0 7.716 0.037 7.911 0.109 8.093 C 0.181 8.275 0.287 8.441 0.42 8.58 L 6.134 14.579 C 6.403 14.852 6.764 15.003 7.138 15 C 7.513 14.997 7.871 14.839 8.136 14.561 C 8.401 14.283 8.551 13.907 8.554 13.513 C 8.558 13.12 8.414 12.741 8.154 12.458 L 4.878 9.017 L 18.572 9.017 C 18.95 9.017 19.314 8.859 19.582 8.577 C 19.849 8.296 20 7.915 20 7.517 C 20 7.119 19.849 6.738 19.582 6.456 C 19.314 6.175 18.95 6.017 18.572 6.017 Z" fill="currentColor" fill-rule="nonzero"/>
</svg>
