<svg xmlns="http://www.w3.org/2000/svg" width="15" height="20" viewBox="0 0 15 20" fill="none">
  <path d="M 14.56 11.846 C 14.279 11.578 13.898 11.428 13.501 11.428 C 13.104 11.428 12.723 11.578 12.442 11.846 L 9.007 15.122 L 9.007 1.428 C 9.007 1.05 8.849 0.686 8.568 0.418 C 8.287 0.15 7.906 0 7.509 0 C 7.111 0 6.73 0.15 6.449 0.418 C 6.168 0.686 6.011 1.05 6.011 1.428 L 6.011 15.122 L 2.576 11.846 C 2.437 11.71 2.272 11.601 2.089 11.526 C 1.907 11.451 1.71 11.412 1.511 11.41 C 1.312 11.409 1.115 11.445 0.931 11.517 C 0.747 11.588 0.579 11.694 0.439 11.829 C 0.298 11.963 0.187 12.122 0.112 12.298 C 0.036 12.473 -0.002 12.661 0 12.851 C 0.002 13.041 0.043 13.228 0.122 13.402 C 0.2 13.577 0.314 13.734 0.457 13.866 L 6.449 19.58 C 6.589 19.713 6.755 19.819 6.938 19.89 C 7.119 19.963 7.314 20 7.51 20 C 7.707 20 7.901 19.963 8.082 19.89 C 8.265 19.819 8.431 19.713 8.571 19.58 L 14.563 13.866 C 14.843 13.598 15.001 13.234 15 12.856 C 14.999 12.477 14.841 12.114 14.56 11.846 L 14.56 11.846 Z" fill="currentColor" fill-rule="nonzero"/>
</svg>
