<svg xmlns="http://www.w3.org/2000/svg" width="16.667" height="20" viewBox="0 0 16.667 20" fill="none">
  <path d="M 14.444 11.086 L 14.444 9.191 C 14.445 7.911 13.957 6.667 13.06 5.662 C 12.162 4.657 10.908 3.949 9.499 3.653 C 9.51 3.616 9.518 3.579 9.524 3.541 L 9.524 1.053 C 9.524 0.773 9.398 0.506 9.175 0.308 C 8.952 0.111 8.649 0 8.333 0 C 8.018 0 7.715 0.111 7.492 0.308 C 7.268 0.506 7.143 0.773 7.143 1.053 L 7.143 3.541 C 7.149 3.579 7.157 3.616 7.168 3.653 C 5.759 3.949 4.504 4.657 3.607 5.662 C 2.71 6.667 2.222 7.911 2.223 9.191 L 2.223 11.086 C 2.223 13.598 0 14.225 0 15.481 C 0 16.105 0 16.737 0.64 16.737 L 16.026 16.737 C 16.667 16.737 16.667 16.105 16.667 15.481 C 16.667 14.225 14.444 13.598 14.444 11.086 Z" fill="currentColor" fill-rule="nonzero"/>
  <path d="M 4.551 17.789 C 4.867 18.445 5.394 19.004 6.066 19.397 C 6.739 19.79 7.527 20 8.333 20 C 9.139 20 9.928 19.79 10.6 19.397 C 11.273 19.004 11.8 18.445 12.115 17.789 L 4.551 17.789 Z" fill="currentColor" fill-rule="nonzero"/>
</svg>
