<svg xmlns="http://www.w3.org/2000/svg" width="18.333" height="18.333" viewBox="0 0 18.333 18.333" fill="none">
  <path d="M 5.729 3.438 L 5.729 2.438 C 5.177 2.438 4.729 2.885 4.729 3.438 L 5.729 3.438 Z M 6.875 3.438 L 7.875 3.438 C 7.875 2.885 7.427 2.438 6.875 2.438 L 6.875 3.438 Z M 6.875 4.583 L 6.875 5.583 C 7.427 5.583 7.875 5.136 7.875 4.583 L 6.875 4.583 Z M 5.729 4.583 L 4.729 4.583 C 4.729 5.136 5.177 5.583 5.729 5.583 L 5.729 4.583 Z M 11.458 3.438 L 11.458 2.438 C 10.906 2.438 10.458 2.885 10.458 3.438 L 11.458 3.438 Z M 12.604 3.438 L 13.604 3.438 C 13.604 2.885 13.156 2.438 12.604 2.438 L 12.604 3.438 Z M 12.604 4.583 L 12.604 5.583 C 13.156 5.583 13.604 5.136 13.604 4.583 L 12.604 4.583 Z M 11.458 4.583 L 10.458 4.583 C 10.458 5.136 10.906 5.583 11.458 5.583 L 11.458 4.583 Z M 5.729 8.021 L 5.729 7.021 C 5.177 7.021 4.729 7.469 4.729 8.021 L 5.729 8.021 Z M 6.875 8.021 L 7.875 8.021 C 7.875 7.469 7.427 7.021 6.875 7.021 L 6.875 8.021 Z M 6.875 9.167 L 6.875 10.167 C 7.427 10.167 7.875 9.719 7.875 9.167 L 6.875 9.167 Z M 5.729 9.167 L 4.729 9.167 C 4.729 9.719 5.177 10.167 5.729 10.167 L 5.729 9.167 Z M 11.458 8.021 L 11.458 7.021 C 10.906 7.021 10.458 7.469 10.458 8.021 L 11.458 8.021 Z M 12.604 8.021 L 13.604 8.021 C 13.604 7.469 13.156 7.021 12.604 7.021 L 12.604 8.021 Z M 12.604 9.167 L 12.604 10.167 C 13.156 10.167 13.604 9.719 13.604 9.167 L 12.604 9.167 Z M 11.458 9.167 L 10.458 9.167 C 10.458 9.719 10.906 10.167 11.458 10.167 L 11.458 9.167 Z M 11.458 18.333 L 11.458 19.333 C 12.011 19.333 12.458 18.886 12.458 18.333 L 11.458 18.333 Z M 6.875 18.333 L 5.875 18.333 C 5.875 18.886 6.323 19.333 6.875 19.333 L 6.875 18.333 Z M 0 17.333 C -0.552 17.333 -1 17.781 -1 18.333 C -1 18.886 -0.552 19.333 0 19.333 L 0 17.333 Z M 18.333 19.333 C 18.886 19.333 19.333 18.886 19.333 18.333 C 19.333 17.781 18.886 17.333 18.333 17.333 L 18.333 19.333 Z M 1.146 -1 C 0.594 -1 0.146 -0.552 0.146 0 C 0.146 0.552 0.594 1 1.146 1 L 1.146 -1 Z M 17.188 1 C 17.74 1 18.188 0.552 18.188 0 C 18.188 -0.552 17.74 -1 17.188 -1 L 17.188 1 Z M 2.292 0 L 2.292 1 L 16.042 1 L 16.042 0 L 16.042 -1 L 2.292 -1 L 2.292 0 Z M 16.042 0 L 15.042 0 L 15.042 18.333 L 16.042 18.333 L 17.042 18.333 L 17.042 0 L 16.042 0 Z M 16.042 18.333 L 16.042 17.333 L 2.292 17.333 L 2.292 18.333 L 2.292 19.333 L 16.042 19.333 L 16.042 18.333 Z M 2.292 18.333 L 3.292 18.333 L 3.292 0 L 2.292 0 L 1.292 0 L 1.292 18.333 L 2.292 18.333 Z M 5.729 3.438 L 5.729 4.438 L 6.875 4.438 L 6.875 3.438 L 6.875 2.438 L 5.729 2.438 L 5.729 3.438 Z M 6.875 3.438 L 5.875 3.438 L 5.875 4.583 L 6.875 4.583 L 7.875 4.583 L 7.875 3.438 L 6.875 3.438 Z M 6.875 4.583 L 6.875 3.583 L 5.729 3.583 L 5.729 4.583 L 5.729 5.583 L 6.875 5.583 L 6.875 4.583 Z M 5.729 4.583 L 6.729 4.583 L 6.729 3.438 L 5.729 3.438 L 4.729 3.438 L 4.729 4.583 L 5.729 4.583 Z M 11.458 3.438 L 11.458 4.438 L 12.604 4.438 L 12.604 3.438 L 12.604 2.438 L 11.458 2.438 L 11.458 3.438 Z M 12.604 3.438 L 11.604 3.438 L 11.604 4.583 L 12.604 4.583 L 13.604 4.583 L 13.604 3.438 L 12.604 3.438 Z M 12.604 4.583 L 12.604 3.583 L 11.458 3.583 L 11.458 4.583 L 11.458 5.583 L 12.604 5.583 L 12.604 4.583 Z M 11.458 4.583 L 12.458 4.583 L 12.458 3.438 L 11.458 3.438 L 10.458 3.438 L 10.458 4.583 L 11.458 4.583 Z M 5.729 8.021 L 5.729 9.021 L 6.875 9.021 L 6.875 8.021 L 6.875 7.021 L 5.729 7.021 L 5.729 8.021 Z M 6.875 8.021 L 5.875 8.021 L 5.875 9.167 L 6.875 9.167 L 7.875 9.167 L 7.875 8.021 L 6.875 8.021 Z M 6.875 9.167 L 6.875 8.167 L 5.729 8.167 L 5.729 9.167 L 5.729 10.167 L 6.875 10.167 L 6.875 9.167 Z M 5.729 9.167 L 6.729 9.167 L 6.729 8.021 L 5.729 8.021 L 4.729 8.021 L 4.729 9.167 L 5.729 9.167 Z M 11.458 8.021 L 11.458 9.021 L 12.604 9.021 L 12.604 8.021 L 12.604 7.021 L 11.458 7.021 L 11.458 8.021 Z M 12.604 8.021 L 11.604 8.021 L 11.604 9.167 L 12.604 9.167 L 13.604 9.167 L 13.604 8.021 L 12.604 8.021 Z M 12.604 9.167 L 12.604 8.167 L 11.458 8.167 L 11.458 9.167 L 11.458 10.167 L 12.604 10.167 L 12.604 9.167 Z M 11.458 9.167 L 12.458 9.167 L 12.458 8.021 L 11.458 8.021 L 10.458 8.021 L 10.458 9.167 L 11.458 9.167 Z M 8.021 12.604 L 8.021 13.604 L 10.313 13.604 L 10.313 12.604 L 10.313 11.604 L 8.021 11.604 L 8.021 12.604 Z M 10.313 12.604 L 10.313 13.604 C 10.351 13.604 10.388 13.62 10.416 13.647 L 11.123 12.94 L 11.83 12.233 C 11.427 11.83 10.882 11.604 10.313 11.604 L 10.313 12.604 Z M 11.123 12.94 L 10.416 13.647 C 10.443 13.674 10.458 13.711 10.458 13.75 L 11.458 13.75 L 12.458 13.75 C 12.458 13.181 12.232 12.635 11.83 12.233 L 11.123 12.94 Z M 11.458 13.75 L 10.458 13.75 L 10.458 18.333 L 11.458 18.333 L 12.458 18.333 L 12.458 13.75 L 11.458 13.75 Z M 11.458 18.333 L 11.458 17.333 L 6.875 17.333 L 6.875 18.333 L 6.875 19.333 L 11.458 19.333 L 11.458 18.333 Z M 6.875 18.333 L 7.875 18.333 L 7.875 13.75 L 6.875 13.75 L 5.875 13.75 L 5.875 18.333 L 6.875 18.333 Z M 6.875 13.75 L 7.875 13.75 C 7.875 13.711 7.89 13.674 7.918 13.647 L 7.211 12.94 L 6.504 12.233 C 6.101 12.635 5.875 13.181 5.875 13.75 L 6.875 13.75 Z M 7.211 12.94 L 7.918 13.647 C 7.945 13.62 7.982 13.604 8.021 13.604 L 8.021 12.604 L 8.021 11.604 C 7.452 11.604 6.906 11.83 6.504 12.233 L 7.211 12.94 Z M 0 18.333 L 0 19.333 L 2.292 19.333 L 2.292 18.333 L 2.292 17.333 L 0 17.333 L 0 18.333 Z M 16.042 18.333 L 16.042 19.333 L 18.333 19.333 L 18.333 18.333 L 18.333 17.333 L 16.042 17.333 L 16.042 18.333 Z M 1.146 0 L 1.146 1 L 2.292 1 L 2.292 0 L 2.292 -1 L 1.146 -1 L 1.146 0 Z M 16.042 0 L 16.042 1 L 17.188 1 L 17.188 0 L 17.188 -1 L 16.042 -1 L 16.042 0 Z" fill="currentColor" fill-rule="nonzero"/>
</svg>
