<svg xmlns="http://www.w3.org/2000/svg" width="20" height="16" viewBox="0 0 20 16" fill="none">
  <path d="M 18.025 0 L 6.173 0 C 5.649 0 5.147 0.207 4.776 0.577 C 4.406 0.946 4.198 1.447 4.198 1.969 L 4.198 2.462 L 14.074 2.462 C 14.991 2.462 15.87 2.825 16.518 3.471 C 17.167 4.117 17.531 4.994 17.531 5.908 L 17.531 11.815 L 18.025 11.815 C 18.549 11.815 19.051 11.608 19.421 11.239 C 19.792 10.869 20 10.368 20 9.846 L 20 1.969 C 20 1.447 19.792 0.946 19.421 0.577 C 19.051 0.207 18.549 0 18.025 0 Z" fill="currentColor" fill-rule="nonzero"/>
  <path d="M 8.148 10.831 C 8.694 10.831 9.136 10.39 9.136 9.846 C 9.136 9.302 8.694 8.862 8.148 8.862 C 7.603 8.862 7.16 9.302 7.16 9.846 C 7.16 10.39 7.603 10.831 8.148 10.831 Z" fill="currentColor" fill-rule="nonzero"/>
  <path d="M 14.074 3.692 L 2.222 3.692 C 1.633 3.693 1.068 3.927 0.652 4.342 C 0.235 4.757 0.001 5.32 0 5.908 L 0 13.785 C 0.001 14.372 0.235 14.935 0.652 15.35 C 1.068 15.766 1.633 15.999 2.222 16 L 14.074 16 C 14.663 15.999 15.228 15.766 15.645 15.35 C 16.061 14.935 16.296 14.372 16.296 13.785 L 16.296 5.908 C 16.296 5.32 16.061 4.757 15.645 4.342 C 15.228 3.927 14.663 3.693 14.074 3.692 Z M 8.148 12.8 C 7.562 12.8 6.989 12.627 6.502 12.302 C 6.015 11.978 5.635 11.516 5.411 10.977 C 5.186 10.437 5.128 9.843 5.242 9.27 C 5.356 8.697 5.639 8.171 6.053 7.757 C 6.467 7.344 6.995 7.063 7.57 6.949 C 8.145 6.835 8.741 6.894 9.282 7.117 C 9.823 7.341 10.286 7.719 10.612 8.205 C 10.937 8.691 11.111 9.262 11.111 9.846 C 11.111 10.63 10.799 11.381 10.243 11.935 C 9.688 12.489 8.934 12.8 8.148 12.8 Z" fill="currentColor" fill-rule="nonzero"/>
</svg>
