<svg xmlns="http://www.w3.org/2000/svg" width="20" height="20" viewBox="0 0 20 20" fill="none">
  <path d="M 1.176 12.222 C 0.526 12.222 0 12.72 0 13.333 L 0 18.889 C 0 19.502 0.526 20 1.176 20 C 1.827 20 2.353 19.502 2.353 18.889 L 2.353 13.333 C 2.353 12.72 1.827 12.222 1.176 12.222 Z" fill="currentColor" fill-rule="nonzero"/>
  <path d="M 7.059 7.778 C 6.408 7.778 5.882 8.275 5.882 8.889 L 5.882 18.889 C 5.882 19.502 6.408 20 7.059 20 C 7.709 20 8.235 19.502 8.235 18.889 L 8.235 8.889 C 8.235 8.275 7.709 7.778 7.059 7.778 Z" fill="currentColor" fill-rule="nonzero"/>
  <path d="M 12.941 12.222 C 12.291 12.222 11.765 12.72 11.765 13.333 L 11.765 18.889 C 11.765 19.502 12.291 20 12.941 20 C 13.592 20 14.118 19.502 14.118 18.889 L 14.118 13.333 C 14.118 12.72 13.592 12.222 12.941 12.222 Z" fill="currentColor" fill-rule="nonzero"/>
  <path d="M 18.824 7.778 C 18.173 7.778 17.647 8.275 17.647 8.889 L 17.647 18.889 C 17.647 19.502 18.173 20 18.824 20 C 19.474 20 20 19.502 20 18.889 L 20 8.889 C 20 8.275 19.474 7.778 18.824 7.778 Z" fill="currentColor" fill-rule="nonzero"/>
  <path d="M 1.175 8.889 C 1.513 8.889 1.847 8.752 2.081 8.489 L 7.059 2.847 L 12.036 8.489 C 12.485 8.996 13.396 8.996 13.845 8.489 L 19.727 1.822 C 20.144 1.351 20.075 0.65 19.576 0.258 C 19.075 -0.136 18.335 -0.071 17.919 0.4 L 12.941 6.042 L 7.964 0.4 C 7.515 -0.107 6.604 -0.107 6.155 0.4 L 0.273 7.067 C -0.144 7.538 -0.075 8.239 0.424 8.631 C 0.644 8.804 0.909 8.889 1.175 8.889 Z" fill="currentColor" fill-rule="nonzero"/>
</svg>
