<svg xmlns="http://www.w3.org/2000/svg" width="20" height="16.667" viewBox="0 0 20 16.667" fill="none">
  <path d="M 7.155 16.667 C 6.829 16.668 6.515 16.515 6.281 16.239 L 0.377 9.296 C 0.26 9.157 0.166 8.991 0.101 8.807 C 0.036 8.624 0.002 8.427 0 8.228 C -0.004 7.825 0.124 7.437 0.356 7.149 C 0.588 6.861 0.905 6.697 1.237 6.692 C 1.569 6.687 1.889 6.842 2.127 7.124 L 7.16 13.042 L 17.872 0.431 C 18.11 0.15 18.431 -0.005 18.763 0 C 19.095 0.005 19.412 0.17 19.644 0.459 C 19.876 0.747 20.004 1.135 20 1.538 C 19.996 1.941 19.86 2.325 19.622 2.607 L 8.03 16.239 C 7.796 16.515 7.482 16.668 7.155 16.667 Z" fill="currentColor" fill-rule="nonzero"/>
</svg>
