<svg xmlns="http://www.w3.org/2000/svg" width="20" height="20" viewBox="0 0 20 20" fill="none">
  <path d="M 10 0 C 8.022 0 6.089 0.586 4.444 1.685 C 2.8 2.784 1.518 4.346 0.761 6.173 C 0.004 8 -0.194 10.011 0.192 11.951 C 0.578 13.891 1.53 15.673 2.929 17.071 C 4.327 18.47 6.109 19.422 8.049 19.808 C 9.989 20.194 12 19.996 13.827 19.239 C 15.654 18.482 17.216 17.2 18.315 15.556 C 19.414 13.911 20 11.978 20 10 C 19.997 7.349 18.943 4.807 17.068 2.932 C 15.193 1.057 12.651 0.003 10 0 Z M 13.707 8.707 L 9.707 12.707 C 9.519 12.894 9.265 13 9 13 C 8.735 13 8.481 12.894 8.293 12.707 L 6.293 10.707 C 6.111 10.518 6.01 10.266 6.012 10.004 C 6.015 9.741 6.12 9.491 6.305 9.305 C 6.491 9.12 6.741 9.015 7.004 9.012 C 7.266 9.01 7.518 9.111 7.707 9.293 L 9 10.586 L 12.293 7.293 C 12.482 7.111 12.734 7.01 12.996 7.012 C 13.259 7.015 13.509 7.12 13.695 7.305 C 13.88 7.491 13.985 7.741 13.988 8.004 C 13.99 8.266 13.889 8.518 13.707 8.707 Z" fill="currentColor" fill-rule="nonzero"/>
</svg>
