<svg xmlns="http://www.w3.org/2000/svg" width="13.333" height="20" viewBox="0 0 13.333 20" fill="none">
  <path d="M 12.002 7.5 C 11.649 7.5 11.31 7.368 11.06 7.134 L 6.675 3.017 L 2.29 7.134 C 2.167 7.253 2.02 7.348 1.857 7.414 C 1.695 7.479 1.52 7.514 1.343 7.515 C 1.166 7.517 0.991 7.485 0.827 7.422 C 0.664 7.359 0.515 7.266 0.39 7.149 C 0.265 7.032 0.166 6.892 0.099 6.739 C 0.032 6.585 -0.001 6.42 0 6.254 C 0.002 6.088 0.038 5.924 0.108 5.772 C 0.178 5.619 0.279 5.481 0.407 5.366 L 5.733 0.366 C 5.983 0.132 6.322 0 6.675 0 C 7.028 0 7.367 0.132 7.617 0.366 L 12.943 5.366 C 13.13 5.541 13.256 5.764 13.308 6.006 C 13.359 6.248 13.333 6.5 13.232 6.728 C 13.131 6.957 12.961 7.152 12.742 7.289 C 12.523 7.426 12.265 7.5 12.002 7.5 Z" fill="currentColor" fill-rule="nonzero"/>
  <path d="M 6.675 20 C 6.322 20 5.983 19.868 5.733 19.634 L 0.407 14.634 C 0.279 14.518 0.178 14.38 0.108 14.228 C 0.038 14.075 0.002 13.911 0 13.745 C -0.001 13.579 0.032 13.415 0.099 13.261 C 0.166 13.108 0.265 12.968 0.39 12.851 C 0.515 12.733 0.664 12.64 0.827 12.578 C 0.991 12.515 1.166 12.483 1.343 12.485 C 1.52 12.486 1.695 12.521 1.857 12.586 C 2.02 12.652 2.167 12.747 2.29 12.866 L 6.675 16.982 L 11.06 12.866 C 11.312 12.638 11.648 12.512 11.997 12.515 C 12.346 12.518 12.68 12.65 12.927 12.881 C 13.174 13.113 13.314 13.427 13.317 13.754 C 13.32 14.082 13.186 14.398 12.943 14.634 L 7.617 19.634 C 7.367 19.868 7.028 20 6.675 20 Z" fill="currentColor" fill-rule="nonzero"/>
</svg>
