<svg xmlns="http://www.w3.org/2000/svg" width="11.667" height="20" viewBox="0 0 11.667 20" fill="none">
  <path d="M 1.964 20 C 1.581 20 1.206 19.883 0.886 19.663 C 0.567 19.444 0.319 19.132 0.172 18.767 C 0.025 18.402 -0.013 18 0.062 17.613 C 0.136 17.225 0.321 16.87 0.592 16.59 L 6.983 10.012 L 0.592 3.434 C 0.407 3.25 0.259 3.03 0.158 2.786 C 0.056 2.542 0.002 2.28 0 2.015 C -0.002 1.75 0.047 1.487 0.145 1.241 C 0.242 0.996 0.386 0.773 0.568 0.585 C 0.751 0.398 0.967 0.249 1.206 0.149 C 1.444 0.048 1.7 -0.002 1.957 0 C 2.215 0.002 2.47 0.057 2.706 0.162 C 2.943 0.267 3.157 0.419 3.336 0.61 L 11.099 8.6 C 11.462 8.975 11.667 9.483 11.667 10.012 C 11.667 10.542 11.462 11.05 11.099 11.425 L 3.336 19.415 C 2.973 19.789 2.479 20 1.964 20 Z" fill="currentColor" fill-rule="nonzero"/>
</svg>
