<svg xmlns="http://www.w3.org/2000/svg" width="20" height="11.667" viewBox="0 0 20 11.667" fill="none">
  <path d="M 10.025 11.667 C 9.494 11.667 8.986 11.462 8.611 11.098 L 0.611 3.336 C 0.42 3.157 0.267 2.943 0.162 2.706 C 0.058 2.47 0.002 2.215 0 1.957 C -0.002 1.7 0.048 1.444 0.149 1.206 C 0.249 0.967 0.398 0.751 0.586 0.568 C 0.774 0.386 0.997 0.242 1.243 0.145 C 1.488 0.047 1.752 -0.002 2.017 0 C 2.283 0.002 2.545 0.056 2.789 0.158 C 3.033 0.259 3.254 0.407 3.439 0.592 L 10.025 6.982 L 16.611 0.592 C 16.988 0.239 17.493 0.043 18.017 0.048 C 18.542 0.052 19.043 0.256 19.414 0.616 C 19.785 0.976 19.995 1.463 20 1.971 C 20.004 2.48 19.803 2.97 19.439 3.336 L 11.439 11.098 C 11.064 11.462 10.555 11.667 10.025 11.667 L 10.025 11.667 Z" fill="currentColor" fill-rule="nonzero"/>
</svg>
