<svg xmlns="http://www.w3.org/2000/svg" width="20" height="20" viewBox="0 0 20 20" fill="none">
  <path d="M 10 0 C 8.022 0 6.089 0.586 4.444 1.685 C 2.8 2.784 1.518 4.346 0.761 6.173 C 0.004 8 -0.194 10.011 0.192 11.951 C 0.578 13.891 1.53 15.673 2.929 17.071 C 4.327 18.47 6.109 19.422 8.049 19.808 C 9.989 20.194 12 19.996 13.827 19.239 C 15.654 18.482 17.216 17.2 18.315 15.556 C 19.414 13.911 20 11.978 20 10 C 19.997 7.349 18.943 4.807 17.068 2.932 C 15.193 1.057 12.651 0.003 10 0 L 10 0 Z M 13.982 13.982 C 13.794 14.169 13.54 14.275 13.275 14.275 C 13.01 14.275 12.756 14.169 12.568 13.982 L 9.294 10.708 C 9.107 10.52 9.001 10.265 9 10 L 9 6 C 9 5.735 9.105 5.48 9.293 5.293 C 9.48 5.105 9.735 5 10 5 C 10.265 5 10.52 5.105 10.707 5.293 C 10.895 5.48 11 5.735 11 6 L 11 9.586 L 13.982 12.568 C 14.169 12.756 14.275 13.01 14.275 13.275 C 14.275 13.54 14.169 13.794 13.982 13.982 L 13.982 13.982 Z" fill="currentColor" fill-rule="nonzero"/>
</svg>
