<svg xmlns="http://www.w3.org/2000/svg" width="20" height="20" viewBox="0 0 20 20" fill="none">
  <path d="M 18.889 7.778 L 18.048 7.778 L 17.262 5.881 L 17.857 5.286 C 18.065 5.077 18.182 4.795 18.182 4.5 C 18.182 4.205 18.065 3.923 17.857 3.714 L 16.286 2.143 C 16.077 1.935 15.795 1.818 15.5 1.818 C 15.205 1.818 14.923 1.935 14.714 2.143 L 14.119 2.738 L 12.222 1.952 L 12.222 1.111 C 12.222 0.816 12.105 0.534 11.897 0.325 C 11.688 0.117 11.406 0 11.111 0 L 8.889 0 C 8.594 0 8.312 0.117 8.103 0.325 C 7.895 0.534 7.778 0.816 7.778 1.111 L 7.778 1.952 L 5.881 2.738 L 5.286 2.143 C 5.077 1.935 4.795 1.818 4.5 1.818 C 4.205 1.818 3.923 1.935 3.714 2.143 L 2.143 3.714 C 1.935 3.923 1.818 4.205 1.818 4.5 C 1.818 4.795 1.935 5.077 2.143 5.286 L 2.739 5.881 L 1.952 7.778 L 1.111 7.778 C 0.816 7.778 0.534 7.895 0.325 8.103 C 0.117 8.312 0 8.594 0 8.889 L 0 11.111 C 0 11.406 0.117 11.688 0.325 11.897 C 0.534 12.105 0.816 12.222 1.111 12.222 L 1.952 12.222 C 2.331 13.137 2.36 13.204 2.738 14.119 L 2.143 14.714 C 1.935 14.923 1.818 15.205 1.818 15.5 C 1.818 15.795 1.935 16.077 2.143 16.286 L 3.714 17.857 C 3.923 18.065 4.205 18.182 4.5 18.182 C 4.795 18.182 5.077 18.065 5.286 17.857 L 5.881 17.262 L 7.778 18.048 L 7.778 18.889 C 7.778 19.184 7.895 19.466 8.103 19.675 C 8.312 19.883 8.594 20 8.889 20 L 11.111 20 C 11.406 20 11.688 19.883 11.897 19.675 C 12.105 19.466 12.222 19.184 12.222 18.889 L 12.222 18.048 L 14.119 17.261 L 14.714 17.857 C 14.923 18.065 15.205 18.182 15.5 18.182 C 15.795 18.182 16.077 18.065 16.286 17.857 L 17.857 16.286 C 18.065 16.077 18.182 15.795 18.182 15.5 C 18.182 15.205 18.065 14.923 17.857 14.714 L 17.262 14.119 L 18.048 12.222 L 18.889 12.222 C 19.184 12.222 19.466 12.105 19.675 11.897 C 19.883 11.688 20 11.406 20 11.111 L 20 8.889 C 20 8.594 19.883 8.312 19.675 8.103 C 19.466 7.895 19.184 7.778 18.889 7.778 Z M 10 14.444 C 9.121 14.444 8.262 14.184 7.531 13.695 C 6.8 13.207 6.23 12.513 5.894 11.701 C 5.557 10.889 5.469 9.995 5.641 9.133 C 5.812 8.271 6.236 7.479 6.857 6.857 C 7.479 6.236 8.271 5.812 9.133 5.641 C 9.995 5.469 10.889 5.557 11.701 5.894 C 12.513 6.23 13.207 6.8 13.695 7.531 C 14.184 8.262 14.444 9.121 14.444 10 C 14.444 11.179 13.976 12.309 13.143 13.143 C 12.309 13.976 11.179 14.444 10 14.444 Z" fill="currentColor" fill-rule="nonzero"/>
</svg>
