<svg xmlns="http://www.w3.org/2000/svg" width="20" height="20" viewBox="0 0 20 20" fill="none">
  <path d="M 14.707 7.48 C 14.519 7.288 14.265 7.18 14 7.18 C 13.735 7.18 13.481 7.288 13.293 7.48 L 11 9.832 L 11 1.026 C 11 0.754 10.895 0.493 10.707 0.3 C 10.52 0.108 10.265 0 10 0 C 9.735 0 9.48 0.108 9.293 0.3 C 9.105 0.493 9 0.754 9 1.026 L 9 9.832 L 6.707 7.48 C 6.615 7.382 6.504 7.304 6.382 7.25 C 6.26 7.196 6.129 7.168 5.996 7.167 C 5.864 7.166 5.732 7.192 5.609 7.243 C 5.486 7.295 5.374 7.371 5.281 7.467 C 5.187 7.564 5.112 7.678 5.062 7.804 C 5.012 7.93 4.987 8.065 4.988 8.201 C 4.989 8.338 5.016 8.472 5.069 8.597 C 5.121 8.722 5.197 8.836 5.293 8.93 L 9.293 13.033 C 9.386 13.128 9.496 13.204 9.618 13.256 C 9.739 13.308 9.869 13.334 10.001 13.334 C 10.133 13.334 10.263 13.308 10.384 13.256 C 10.506 13.204 10.616 13.128 10.709 13.033 L 14.709 8.93 C 14.896 8.738 15.001 8.477 15.001 8.205 C 15 7.933 14.895 7.672 14.707 7.48 Z" fill="currentColor" fill-rule="nonzero"/>
  <path d="M 18 11.795 L 15.45 11.795 L 12.475 14.846 C 12.15 15.18 11.764 15.444 11.339 15.624 C 10.915 15.805 10.46 15.898 10 15.898 C 9.54 15.898 9.085 15.805 8.661 15.624 C 8.236 15.444 7.85 15.18 7.525 14.846 L 4.55 11.795 L 2 11.795 C 1.47 11.795 0.961 12.011 0.586 12.396 C 0.211 12.78 0 13.302 0 13.846 L 0 17.949 C 0 18.493 0.211 19.015 0.586 19.399 C 0.961 19.784 1.47 20 2 20 L 18 20 C 18.53 20 19.039 19.784 19.414 19.399 C 19.789 19.015 20 18.493 20 17.949 L 20 13.846 C 20 13.302 19.789 12.78 19.414 12.396 C 19.039 12.011 18.53 11.795 18 11.795 Z M 15.5 17.949 C 15.203 17.949 14.913 17.858 14.667 17.689 C 14.42 17.52 14.228 17.28 14.114 16.999 C 14.001 16.718 13.971 16.409 14.029 16.11 C 14.087 15.812 14.23 15.538 14.439 15.322 C 14.649 15.107 14.916 14.961 15.207 14.901 C 15.498 14.842 15.8 14.872 16.074 14.989 C 16.348 15.105 16.582 15.303 16.747 15.556 C 16.912 15.809 17 16.106 17 16.41 C 17 16.818 16.842 17.21 16.561 17.498 C 16.279 17.787 15.898 17.949 15.5 17.949 Z" fill="currentColor" fill-rule="nonzero"/>
</svg>
