<svg xmlns="http://www.w3.org/2000/svg" width="20" height="20" viewBox="0 0 20 20" fill="none">
  <path d="M 14.18 17.688 C 14.18 17.735 14.162 17.78 14.13 17.814 C 14.099 17.847 14.056 17.866 14.011 17.866 L 2.195 17.866 C 2.15 17.866 2.107 17.847 2.075 17.814 C 2.044 17.78 2.026 17.735 2.026 17.688 L 2.026 5.239 C 2.026 5.192 2.044 5.146 2.075 5.113 C 2.107 5.079 2.15 5.061 2.195 5.061 L 9.463 5.061 L 11.489 2.926 L 2.195 2.926 C 1.613 2.927 1.055 3.171 0.643 3.604 C 0.232 4.038 0.001 4.626 0 5.239 L 0 17.688 C 0.001 18.301 0.232 18.889 0.643 19.322 C 1.055 19.756 1.613 19.999 2.195 20 L 14.011 20 C 14.593 19.999 15.151 19.756 15.562 19.322 C 15.974 18.889 16.205 18.301 16.206 17.688 L 16.206 10.03 L 14.18 12.164 L 14.18 17.688 Z" fill="currentColor" fill-rule="nonzero"/>
  <path d="M 19.106 0.937 C 18.536 0.337 17.764 0 16.958 0 C 16.152 0 15.38 0.337 14.81 0.937 L 6.931 9.237 C 6.79 9.386 6.693 9.576 6.654 9.783 L 5.938 13.556 C 5.908 13.711 5.911 13.871 5.947 14.025 C 5.983 14.178 6.051 14.322 6.146 14.444 C 6.241 14.567 6.361 14.666 6.497 14.733 C 6.632 14.801 6.781 14.836 6.931 14.836 C 6.999 14.836 7.067 14.829 7.133 14.816 L 10.714 14.062 C 10.91 14.02 11.09 13.918 11.231 13.769 L 19.109 5.469 C 19.392 5.172 19.616 4.818 19.769 4.429 C 19.922 4.04 20 3.624 20 3.203 C 20 2.782 19.921 2.365 19.767 1.976 C 19.614 1.587 19.389 1.234 19.106 0.937 Z M 17.674 2.446 C 17.768 2.545 17.843 2.663 17.894 2.793 C 17.945 2.922 17.971 3.061 17.971 3.201 C 17.971 3.341 17.945 3.48 17.894 3.61 C 17.843 3.739 17.768 3.857 17.674 3.956 L 17.131 4.527 L 15.699 3.018 L 16.242 2.446 C 16.432 2.246 16.689 2.134 16.958 2.134 C 17.227 2.134 17.484 2.246 17.674 2.446 Z M 10.013 12.028 L 8.222 12.405 L 8.581 10.518 L 14.267 4.527 L 15.699 6.036 L 10.013 12.028 Z" fill="currentColor" fill-rule="nonzero"/>
</svg>
