<svg xmlns="http://www.w3.org/2000/svg" width="16.667" height="20" viewBox="0 0 16.667 20" fill="none">
  <path d="M 15.66 17 C 15.084 17 14.653 17.448 14.653 18 L 2.089 18.026 C 2.089 18.026 2.083 18.018 2.083 18 C 2.083 17.448 1.617 17 1.042 17 C 0.467 17 0 17.448 0 18 C 0 19.103 0.903 20 2.014 20 L 14.653 20 C 15.764 20 16.667 19.103 16.667 18 C 16.667 17.448 16.235 17 15.66 17 Z" fill="currentColor" fill-rule="nonzero"/>
  <path d="M 14.653 0 L 6.072 0 C 5.236 0 4.451 0.312 3.861 0.879 L 0.916 3.707 C 0.325 4.273 0 5.027 0 5.829 L 0 7 C 0 7.552 0.467 8 1.042 8 C 1.617 8 2.083 7.552 2.083 7 L 5.208 7 C 6.357 7 7.292 6.103 7.292 5 L 7.292 2 L 14.583 2 L 14.583 7 C 14.583 7.552 15.05 8 15.625 8 C 16.2 8 16.667 7.552 16.667 7 L 16.667 2 C 16.667 0.897 15.764 0 14.653 0 Z M 5.208 5 L 2.515 5 L 5.208 2.414 L 5.208 5 Z" fill="currentColor" fill-rule="nonzero"/>
  <path d="M 1.042 16 C 1.617 16 2.083 15.552 2.083 15 L 2.083 14 L 2.604 14 C 4.04 14 5.208 12.878 5.208 11.5 C 5.208 10.122 4.04 9 2.604 9 L 1.042 9 C 0.467 9 0 9.448 0 10 L 0 15 C 0 15.552 0.467 16 1.042 16 Z M 2.083 11 L 2.604 11 C 2.892 11 3.125 11.224 3.125 11.5 C 3.125 11.776 2.892 12 2.604 12 L 2.083 12 L 2.083 11 Z" fill="currentColor" fill-rule="nonzero"/>
  <path d="M 8.724 16 C 10.231 16 11.458 14.822 11.458 13.375 L 11.458 11.625 C 11.458 10.178 10.231 9 8.724 9 L 7.292 9 C 6.717 9 6.25 9.448 6.25 10 L 6.25 15 C 6.25 15.552 6.717 16 7.292 16 L 8.724 16 Z M 8.333 11 L 8.724 11 C 9.083 11 9.375 11.28 9.375 11.625 L 9.375 13.375 C 9.375 13.72 9.083 14 8.724 14 L 8.333 14 L 8.333 11 Z" fill="currentColor" fill-rule="nonzero"/>
  <path d="M 15.625 11 C 16.2 11 16.667 10.552 16.667 10 C 16.667 9.448 16.2 9 15.625 9 L 13.542 9 C 12.967 9 12.5 9.448 12.5 10 L 12.5 15 C 12.5 15.552 12.967 16 13.542 16 C 14.117 16 14.583 15.552 14.583 15 L 14.583 14 L 15.625 14 C 16.2 14 16.667 13.552 16.667 13 C 16.667 12.448 16.2 12 15.625 12 L 14.583 12 L 14.583 11 L 15.625 11 Z" fill="currentColor" fill-rule="nonzero"/>
</svg>
