<svg xmlns="http://www.w3.org/2000/svg" width="16.667" height="20" viewBox="0 0 16.667 20" fill="none">
  <path d="M 14.652 0 L 6.071 0 C 5.236 0 4.451 0.312 3.861 0.879 L 0.916 3.707 C 0.325 4.273 0 5.027 0 5.829 L 0 18 C 0 19.103 0.903 20 2.015 20 L 14.653 20 C 15.764 20 16.667 19.103 16.667 18 L 16.667 2 C 16.667 0.897 15.764 0 14.652 0 Z M 5.208 2.414 L 5.208 5 L 2.515 5 L 5.208 2.414 Z M 2.083 18 L 2.083 7 L 5.208 7 C 6.357 7 7.292 6.103 7.292 5 L 7.292 1.996 L 14.577 1.974 C 14.577 1.974 14.583 1.982 14.583 2 L 14.652 18 L 2.083 18 Z" fill="currentColor" fill-rule="nonzero"/>
  <path d="M 10.722 9.293 L 7.292 12.586 L 5.945 11.293 C 5.537 10.902 4.879 10.902 4.472 11.293 C 4.065 11.684 4.065 12.316 4.472 12.707 L 6.555 14.707 C 6.758 14.902 7.025 15 7.292 15 C 7.558 15 7.825 14.902 8.028 14.707 L 12.195 10.707 C 12.602 10.316 12.602 9.684 12.195 9.293 C 11.787 8.902 11.129 8.902 10.722 9.293 Z" fill="currentColor" fill-rule="nonzero"/>
</svg>
