<svg xmlns="http://www.w3.org/2000/svg" width="20" height="20" viewBox="0 0 20 20" fill="none">
  <path d="M 0.248 1.939 L 7.507 11.515 L 7.507 16.364 L 12.493 20 L 12.493 11.515 L 19.752 1.939 C 19.89 1.759 19.975 1.544 19.995 1.32 C 20.016 1.095 19.972 0.869 19.868 0.668 C 19.764 0.466 19.605 0.297 19.409 0.179 C 19.212 0.061 18.986 -0.001 18.755 0 L 1.245 0 C 1.014 -0.001 0.788 0.061 0.591 0.179 C 0.395 0.297 0.236 0.466 0.132 0.668 C 0.028 0.869 -0.016 1.095 0.005 1.32 C 0.025 1.544 0.11 1.759 0.248 1.939 Z" fill="currentColor" fill-rule="nonzero"/>
</svg>
