<svg xmlns="http://www.w3.org/2000/svg" width="20" height="20" viewBox="0 0 20 20" fill="none">
  <path d="M 19.719 9.293 L 17.716 7.293 L 10.708 0.293 C 10.52 0.105 10.265 0 10 0 C 9.735 0 9.48 0.105 9.292 0.293 L 2.284 7.293 L 0.281 9.293 C 0.099 9.481 -0.002 9.734 0 9.996 C 0.002 10.258 0.108 10.509 0.293 10.695 C 0.479 10.88 0.73 10.985 0.993 10.988 C 1.255 10.99 1.508 10.889 1.697 10.707 L 1.99 10.414 L 1.99 18 C 1.99 18.53 2.201 19.039 2.577 19.414 C 2.952 19.789 3.462 20 3.993 20 L 6.996 20 C 7.262 20 7.517 19.895 7.704 19.707 C 7.892 19.52 7.998 19.265 7.998 19 L 7.998 15 C 7.998 14.735 8.103 14.48 8.291 14.293 C 8.479 14.105 8.733 14 8.999 14 L 11.001 14 C 11.267 14 11.521 14.105 11.709 14.293 C 11.897 14.48 12.002 14.735 12.002 15 L 12.002 19 C 12.002 19.265 12.108 19.52 12.296 19.707 C 12.483 19.895 12.738 20 13.004 20 L 16.007 20 C 16.538 20 17.048 19.789 17.423 19.414 C 17.799 19.039 18.01 18.53 18.01 18 L 18.01 10.414 L 18.303 10.707 C 18.492 10.889 18.745 10.99 19.007 10.988 C 19.27 10.985 19.521 10.88 19.707 10.695 C 19.892 10.509 19.998 10.258 20 9.996 C 20.002 9.734 19.901 9.481 19.719 9.293 Z" fill="currentColor" fill-rule="nonzero"/>
</svg>
