<svg xmlns="http://www.w3.org/2000/svg" width="20" height="20" viewBox="0 0 20 20" fill="none">
  <path d="M 17.752 0.87 C 17.697 0.623 17.56 0.402 17.362 0.244 C 17.165 0.086 16.92 0 16.667 0 L 3.333 0 C 3.08 0 2.835 0.086 2.638 0.244 C 2.44 0.402 2.303 0.623 2.248 0.87 L 0.222 10 L 4.932 10 C 5.58 10 6.213 10.19 6.754 10.545 C 7.295 10.9 7.721 11.406 7.979 12 C 8.148 12.396 8.429 12.734 8.789 12.972 C 9.148 13.21 9.569 13.336 10 13.336 C 10.431 13.336 10.852 13.21 11.211 12.972 C 11.571 12.734 11.852 12.396 12.021 12 C 12.279 11.406 12.705 10.9 13.246 10.545 C 13.787 10.19 14.42 10 15.068 10 L 19.778 10 L 17.752 0.87 Z M 6.667 2.222 L 13.333 2.222 C 13.628 2.222 13.911 2.339 14.119 2.548 C 14.327 2.756 14.444 3.039 14.444 3.333 C 14.444 3.628 14.327 3.911 14.119 4.119 C 13.911 4.327 13.628 4.444 13.333 4.444 L 6.667 4.444 C 6.372 4.444 6.089 4.327 5.881 4.119 C 5.673 3.911 5.556 3.628 5.556 3.333 C 5.556 3.039 5.673 2.756 5.881 2.548 C 6.089 2.339 6.372 2.222 6.667 2.222 Z M 14.444 7.778 L 5.556 7.778 C 5.261 7.778 4.978 7.661 4.77 7.452 C 4.562 7.244 4.444 6.961 4.444 6.667 C 4.444 6.372 4.562 6.089 4.77 5.881 C 4.978 5.673 5.261 5.556 5.556 5.556 L 14.444 5.556 C 14.739 5.556 15.022 5.673 15.23 5.881 C 15.438 6.089 15.556 6.372 15.556 6.667 C 15.556 6.961 15.438 7.244 15.23 7.452 C 15.022 7.661 14.739 7.778 14.444 7.778 Z" fill="currentColor" fill-rule="nonzero"/>
  <path d="M 1.111 20 L 18.889 20 C 19.184 20 19.466 19.883 19.675 19.675 C 19.883 19.466 20 19.184 20 18.889 L 20 12.222 L 15.068 12.222 C 14.853 12.223 14.643 12.286 14.464 12.405 C 14.284 12.523 14.144 12.691 14.059 12.889 C 13.717 13.682 13.151 14.357 12.429 14.832 C 11.708 15.306 10.863 15.559 10 15.559 C 9.137 15.559 8.292 15.306 7.571 14.832 C 6.849 14.357 6.283 13.682 5.941 12.889 C 5.856 12.691 5.716 12.523 5.536 12.405 C 5.357 12.286 5.147 12.223 4.932 12.222 L 0 12.222 L 0 18.889 C 0 19.184 0.117 19.466 0.325 19.675 C 0.534 19.883 0.816 20 1.111 20 Z" fill="currentColor" fill-rule="nonzero"/>
</svg>
