<svg xmlns="http://www.w3.org/2000/svg" width="20" height="20" viewBox="0 0 20 20" fill="none">
  <path d="M 10 20 C 8.022 20 6.089 19.414 4.444 18.315 C 2.8 17.216 1.518 15.654 0.761 13.827 C 0.004 12 -0.194 9.989 0.192 8.049 C 0.578 6.109 1.53 4.327 2.929 2.929 C 4.327 1.53 6.109 0.578 8.049 0.192 C 9.989 -0.194 12 0.004 13.827 0.761 C 15.654 1.518 17.216 2.8 18.315 4.444 C 19.414 6.089 20 8.022 20 10 C 19.997 12.651 18.943 15.193 17.068 17.068 C 15.193 18.943 12.651 19.997 10 20 Z M 10 2 C 8.418 2 6.871 2.469 5.555 3.348 C 4.24 4.227 3.214 5.477 2.609 6.939 C 2.003 8.4 1.845 10.009 2.154 11.561 C 2.462 13.113 3.224 14.538 4.343 15.657 C 5.462 16.776 6.887 17.538 8.439 17.846 C 9.991 18.155 11.6 17.997 13.061 17.391 C 14.523 16.786 15.773 15.76 16.652 14.445 C 17.531 13.129 18 11.582 18 10 C 17.998 7.879 17.154 5.846 15.654 4.346 C 14.154 2.846 12.121 2.002 10 2 Z" fill="currentColor" fill-rule="nonzero"/>
  <path d="M 10 15 C 9.735 15 9.48 14.895 9.293 14.707 C 9.105 14.52 9 14.265 9 14 L 9 10 L 8 10 C 7.735 10 7.48 9.895 7.293 9.707 C 7.105 9.52 7 9.265 7 9 C 7 8.735 7.105 8.48 7.293 8.293 C 7.48 8.105 7.735 8 8 8 L 10 8 C 10.265 8 10.52 8.105 10.707 8.293 C 10.895 8.48 11 8.735 11 9 L 11 14 C 11 14.265 10.895 14.52 10.707 14.707 C 10.52 14.895 10.265 15 10 15 Z" fill="currentColor" fill-rule="nonzero"/>
  <path d="M 12 15 L 8 15 C 7.735 15 7.48 14.895 7.293 14.707 C 7.105 14.52 7 14.265 7 14 C 7 13.735 7.105 13.48 7.293 13.293 C 7.48 13.105 7.735 13 8 13 L 12 13 C 12.265 13 12.52 13.105 12.707 13.293 C 12.895 13.48 13 13.735 13 14 C 13 14.265 12.895 14.52 12.707 14.707 C 12.52 14.895 12.265 15 12 15 Z" fill="currentColor" fill-rule="nonzero"/>
  <path d="M 9.5 7 C 10.328 7 11 6.328 11 5.5 C 11 4.672 10.328 4 9.5 4 C 8.672 4 8 4.672 8 5.5 C 8 6.328 8.672 7 9.5 7 Z" fill="currentColor" fill-rule="nonzero"/>
</svg>
