<svg xmlns="http://www.w3.org/2000/svg" width="20" height="20" viewBox="0 0 20 20" fill="none">
  <path d="M 18.889 8.889 L 11.111 8.889 L 11.111 1.111 C 11.111 0.816 10.994 0.534 10.786 0.325 C 10.577 0.117 10.295 0 10 0 C 9.705 0 9.423 0.117 9.214 0.325 C 9.006 0.534 8.889 0.816 8.889 1.111 L 8.889 8.889 L 1.111 8.889 C 0.816 8.889 0.534 9.006 0.325 9.214 C 0.117 9.423 0 9.705 0 10 C 0 10.295 0.117 10.577 0.325 10.786 C 0.534 10.994 0.816 11.111 1.111 11.111 L 8.889 11.111 L 8.889 18.889 C 8.889 19.184 9.006 19.466 9.214 19.675 C 9.423 19.883 9.705 20 10 20 C 10.295 20 10.577 19.883 10.786 19.675 C 10.994 19.466 11.111 19.184 11.111 18.889 L 11.111 11.111 L 18.889 11.111 C 19.184 11.111 19.466 10.994 19.675 10.786 C 19.883 10.577 20 10.295 20 10 C 20 9.705 19.883 9.423 19.675 9.214 C 19.466 9.006 19.184 8.889 18.889 8.889 Z" fill="currentColor" fill-rule="nonzero"/>
</svg>
