<svg xmlns="http://www.w3.org/2000/svg" width="20" height="20" viewBox="0 0 20 20" fill="none">
  <path d="M 8 16 C 6.418 16 4.871 15.531 3.555 14.652 C 2.24 13.773 1.214 12.523 0.609 11.061 C 0.003 9.6 -0.155 7.991 0.154 6.439 C 0.462 4.887 1.224 3.462 2.343 2.343 C 3.462 1.224 4.887 0.462 6.439 0.154 C 7.991 -0.155 9.6 0.003 11.062 0.609 C 12.523 1.214 13.773 2.24 14.652 3.555 C 15.531 4.871 16 6.418 16 8 C 15.998 10.121 15.154 12.154 13.654 13.654 C 12.155 15.154 10.121 15.998 8 16 Z M 8 2 C 6.813 2 5.653 2.352 4.667 3.011 C 3.68 3.67 2.911 4.608 2.457 5.704 C 2.003 6.8 1.884 8.007 2.115 9.171 C 2.347 10.334 2.918 11.404 3.757 12.243 C 4.597 13.082 5.666 13.653 6.83 13.885 C 7.993 14.116 9.2 13.997 10.296 13.543 C 11.393 13.089 12.33 12.32 12.989 11.333 C 13.648 10.347 14 9.187 14 8 C 13.999 6.409 13.366 4.884 12.241 3.759 C 11.116 2.634 9.591 2.002 8 2 Z" fill="currentColor" fill-rule="nonzero"/>
  <path d="M 19 20 C 18.735 20 18.481 19.895 18.293 19.707 L 14.293 15.707 C 14.111 15.518 14.01 15.266 14.012 15.004 C 14.015 14.741 14.12 14.491 14.305 14.305 C 14.491 14.12 14.742 14.015 15.004 14.012 C 15.266 14.01 15.519 14.111 15.707 14.293 L 19.707 18.293 C 19.847 18.433 19.942 18.611 19.981 18.805 C 20.019 18.999 20 19.2 19.924 19.383 C 19.848 19.565 19.72 19.722 19.556 19.831 C 19.391 19.941 19.198 20 19 20 Z" fill="currentColor" fill-rule="nonzero"/>
</svg>
