<svg xmlns="http://www.w3.org/2000/svg" width="18.333" height="20" viewBox="0 0 18.333 20" fill="none">
  <path d="M 17.315 4.211 L 13.241 4.211 L 13.241 2.105 C 13.241 1.547 13.026 1.011 12.644 0.617 C 12.262 0.222 11.744 0 11.204 0 L 7.13 0 C 6.589 0 6.071 0.222 5.689 0.617 C 5.307 1.011 5.093 1.547 5.093 2.105 L 5.093 4.211 L 1.019 4.211 C 0.748 4.211 0.489 4.321 0.298 4.519 C 0.107 4.716 0 4.984 0 5.263 C 0 5.542 0.107 5.81 0.298 6.007 C 0.489 6.205 0.748 6.316 1.019 6.316 L 2.037 6.316 L 2.037 17.895 C 2.037 18.453 2.252 18.989 2.634 19.383 C 3.016 19.778 3.534 20 4.074 20 L 14.259 20 C 14.8 20 15.318 19.778 15.7 19.383 C 16.082 18.989 16.296 18.453 16.296 17.895 L 16.296 6.316 L 17.315 6.316 C 17.585 6.316 17.844 6.205 18.035 6.007 C 18.226 5.81 18.333 5.542 18.333 5.263 C 18.333 4.984 18.226 4.716 18.035 4.519 C 17.844 4.321 17.585 4.211 17.315 4.211 Z M 7.13 2.105 L 11.204 2.105 L 11.204 4.211 L 7.13 4.211 L 7.13 2.105 Z M 14.259 17.895 L 4.074 17.895 L 4.074 6.316 L 14.259 6.316 L 14.259 17.895 Z" fill="currentColor" fill-rule="nonzero"/>
  <path d="M 7.13 7.368 C 6.86 7.368 6.6 7.479 6.409 7.677 C 6.218 7.874 6.111 8.142 6.111 8.421 L 6.111 15.789 C 6.111 16.069 6.218 16.336 6.409 16.534 C 6.6 16.731 6.86 16.842 7.13 16.842 C 7.4 16.842 7.659 16.731 7.85 16.534 C 8.041 16.336 8.148 16.069 8.148 15.789 L 8.148 8.421 C 8.148 8.142 8.041 7.874 7.85 7.677 C 7.659 7.479 7.4 7.368 7.13 7.368 Z" fill="currentColor" fill-rule="nonzero"/>
  <path d="M 11.204 7.368 C 10.934 7.368 10.675 7.479 10.484 7.677 C 10.292 7.874 10.185 8.142 10.185 8.421 L 10.185 15.789 C 10.185 16.069 10.292 16.336 10.484 16.534 C 10.675 16.731 10.934 16.842 11.204 16.842 C 11.474 16.842 11.733 16.731 11.924 16.534 C 12.115 16.336 12.222 16.069 12.222 15.789 L 12.222 8.421 C 12.222 8.142 12.115 7.874 11.924 7.677 C 11.733 7.479 11.474 7.368 11.204 7.368 Z" fill="currentColor" fill-rule="nonzero"/>
</svg>
