<svg xmlns="http://www.w3.org/2000/svg" width="15" height="20" viewBox="0 0 15 20" fill="none">
  <path d="M 7.5 9.474 C 10.368 9.474 12.692 7.353 12.692 4.737 C 12.692 2.121 10.368 0 7.5 0 C 4.632 0 2.308 2.121 2.308 4.737 C 2.308 7.353 4.632 9.474 7.5 9.474 Z" fill="currentColor" fill-rule="nonzero"/>
  <path d="M 9.231 10.526 L 5.769 10.526 C 4.24 10.528 2.773 11.083 1.692 12.07 C 0.61 13.056 0.002 14.394 0 15.789 L 0 18.947 C 0 19.227 0.122 19.494 0.338 19.692 C 0.554 19.889 0.848 20 1.154 20 L 13.846 20 C 14.152 20 14.446 19.889 14.662 19.692 C 14.878 19.494 15 19.227 15 18.947 L 15 15.789 C 14.998 14.394 14.39 13.056 13.308 12.07 C 12.227 11.083 10.76 10.528 9.231 10.526 Z" fill="currentColor" fill-rule="nonzero"/>
</svg>
