<svg xmlns="http://www.w3.org/2000/svg" width="20" height="20" viewBox="0 0 20 20" fill="none">
  <path d="M 12.016 10 L 19.565 2.452 C 19.701 2.32 19.809 2.163 19.884 1.989 C 19.959 1.815 19.998 1.628 20 1.438 C 20.002 1.249 19.966 1.061 19.894 0.886 C 19.822 0.711 19.716 0.552 19.582 0.418 C 19.448 0.284 19.289 0.178 19.114 0.106 C 18.939 0.034 18.751 -0.002 18.562 0 C 18.372 0.002 18.185 0.041 18.011 0.116 C 17.837 0.191 17.68 0.299 17.548 0.435 L 10 7.984 L 2.452 0.435 C 2.183 0.176 1.823 0.032 1.449 0.035 C 1.075 0.038 0.717 0.188 0.453 0.453 C 0.188 0.717 0.038 1.075 0.035 1.449 C 0.032 1.823 0.176 2.183 0.435 2.452 L 7.984 10 L 0.435 17.548 C 0.299 17.68 0.191 17.837 0.116 18.011 C 0.041 18.185 0.002 18.372 0 18.562 C -0.002 18.751 0.034 18.939 0.106 19.114 C 0.178 19.289 0.284 19.448 0.418 19.582 C 0.552 19.716 0.711 19.822 0.886 19.894 C 1.061 19.966 1.249 20.002 1.438 20 C 1.628 19.998 1.815 19.959 1.989 19.884 C 2.163 19.809 2.32 19.701 2.452 19.565 L 10 12.016 L 17.548 19.565 C 17.817 19.824 18.177 19.968 18.551 19.965 C 18.925 19.962 19.283 19.812 19.547 19.547 C 19.812 19.283 19.962 18.925 19.965 18.551 C 19.968 18.177 19.824 17.817 19.565 17.548 L 12.016 10 Z" fill="currentColor" fill-rule="nonzero"/>
</svg>
